<svg width="27" height="32" viewBox="0 0 27 32" fill="none" xmlns="http://www.w3.org/2000/svg">
<path d="M25.0714 2H1.92254C0.86183 2 0 2.90625 0 4.01875V27.9813C0 29.0938 0.86183 30 1.92254 30H25.0714C26.1321 30 27 29.0938 27 27.9813V4.01875C27 2.90625 26.1321 2 25.0714 2ZM8.16027 26H4.15848V12.6375H8.1663V26H8.16027ZM6.15937 10.8125C4.87567 10.8125 3.83906 9.73125 3.83906 8.40625C3.83906 7.08125 4.87567 6 6.15937 6C7.43705 6 8.47969 7.08125 8.47969 8.40625C8.47969 9.7375 7.44308 10.8125 6.15937 10.8125ZM23.1609 26H19.1592V19.5C19.1592 17.95 19.129 15.9563 17.0799 15.9563C14.9946 15.9563 14.6752 17.6438 14.6752 19.3875V26H10.6734V12.6375H14.5125V14.4625H14.5667C15.1031 13.4125 16.4109 12.3062 18.3576 12.3062C22.4076 12.3062 23.1609 15.075 23.1609 18.675V26Z" fill="#318EF5"/>
</svg>
