<svg width="16" height="18" viewBox="0 0 16 18" fill="none" xmlns="http://www.w3.org/2000/svg">
<g clip-path="url(#clip0)">
<path d="M13.5 11.25H12.5C12.3674 11.25 12.2402 11.3093 12.1464 11.4148C12.0527 11.5202 12 11.6633 12 11.8125V15.75H2V4.5H6.5C6.63261 4.5 6.75979 4.44074 6.85355 4.33525C6.94732 4.22976 7 4.08668 7 3.9375V2.8125C7 2.66332 6.94732 2.52024 6.85355 2.41475C6.75979 2.30926 6.63261 2.25 6.5 2.25H1.5C1.10218 2.25 0.720644 2.42779 0.43934 2.74426C0.158035 3.06072 0 3.48995 0 3.9375L0 16.3125C0 16.7601 0.158035 17.1893 0.43934 17.5057C0.720644 17.8222 1.10218 18 1.5 18H12.5C12.8978 18 13.2794 17.8222 13.5607 17.5057C13.842 17.1893 14 16.7601 14 16.3125V11.8125C14 11.6633 13.9473 11.5202 13.8536 11.4148C13.7598 11.3093 13.6326 11.25 13.5 11.25ZM15.25 0H11.25C10.5822 0 10.2484 0.910898 10.7188 1.44141L11.8353 2.69754L4.21875 11.263C4.14883 11.3414 4.09335 11.4345 4.0555 11.5371C4.01764 11.6397 3.99816 11.7496 3.99816 11.8607C3.99816 11.9717 4.01764 12.0817 4.0555 12.1842C4.09335 12.2868 4.14883 12.3799 4.21875 12.4583L4.92719 13.2539C4.99687 13.3326 5.07966 13.395 5.17082 13.4376C5.26199 13.4802 5.35973 13.5021 5.45844 13.5021C5.55715 13.5021 5.65489 13.4802 5.74605 13.4376C5.83721 13.395 5.92001 13.3326 5.98969 13.2539L13.6025 4.68703L14.7188 5.94141C15.1875 6.46875 16 6.09961 16 5.34375V0.84375C16 0.619974 15.921 0.405362 15.7803 0.247129C15.6397 0.0888948 15.4489 0 15.25 0V0Z" fill="white"/>
</g>
<defs>
<clipPath id="clip0">
<rect width="16" height="18" fill="white"/>
</clipPath>
</defs>
</svg>
