<svg width="20" height="22" viewBox="0 0 20 22" fill="none" xmlns="http://www.w3.org/2000/svg">
<path d="M17.5 2.75H13.3333C13.3333 1.2332 11.8385 0 10 0C8.16146 0 6.66667 1.2332 6.66667 2.75H2.5C1.11979 2.75 0 3.67383 0 4.8125V19.9375C0 21.0762 1.11979 22 2.5 22H17.5C18.8802 22 20 21.0762 20 19.9375V4.8125C20 3.67383 18.8802 2.75 17.5 2.75ZM5 18.2188C4.30729 18.2188 3.75 17.759 3.75 17.1875C3.75 16.616 4.30729 16.1562 5 16.1562C5.69271 16.1562 6.25 16.616 6.25 17.1875C6.25 17.759 5.69271 18.2188 5 18.2188ZM5 14.0938C4.30729 14.0938 3.75 13.634 3.75 13.0625C3.75 12.491 4.30729 12.0312 5 12.0312C5.69271 12.0312 6.25 12.491 6.25 13.0625C6.25 13.634 5.69271 14.0938 5 14.0938ZM5 9.96875C4.30729 9.96875 3.75 9.50898 3.75 8.9375C3.75 8.36602 4.30729 7.90625 5 7.90625C5.69271 7.90625 6.25 8.36602 6.25 8.9375C6.25 9.50898 5.69271 9.96875 5 9.96875ZM10 1.71875C10.6927 1.71875 11.25 2.17852 11.25 2.75C11.25 3.32148 10.6927 3.78125 10 3.78125C9.30729 3.78125 8.75 3.32148 8.75 2.75C8.75 2.17852 9.30729 1.71875 10 1.71875ZM16.6667 17.5312C16.6667 17.7203 16.4792 17.875 16.25 17.875H8.75C8.52083 17.875 8.33333 17.7203 8.33333 17.5312V16.8438C8.33333 16.6547 8.52083 16.5 8.75 16.5H16.25C16.4792 16.5 16.6667 16.6547 16.6667 16.8438V17.5312ZM16.6667 13.4062C16.6667 13.5953 16.4792 13.75 16.25 13.75H8.75C8.52083 13.75 8.33333 13.5953 8.33333 13.4062V12.7188C8.33333 12.5297 8.52083 12.375 8.75 12.375H16.25C16.4792 12.375 16.6667 12.5297 16.6667 12.7188V13.4062ZM16.6667 9.28125C16.6667 9.47031 16.4792 9.625 16.25 9.625H8.75C8.52083 9.625 8.33333 9.47031 8.33333 9.28125V8.59375C8.33333 8.40469 8.52083 8.25 8.75 8.25H16.25C16.4792 8.25 16.6667 8.40469 16.6667 8.59375V9.28125Z" fill="#636363"/>
</svg>
