<svg width="19" height="21" viewBox="0 0 19 21" fill="none" xmlns="http://www.w3.org/2000/svg">
<g clip-path="url(#clip0)">
<path d="M9.5 1.3125C4.25348 1.3125 0 5.13188 0 9.84375C0 11.8765 0.794512 13.7406 2.11598 15.2061C1.64988 17.2696 0.100195 19.1121 0.0816406 19.1338C0.0416823 19.1803 0.0149432 19.2387 0.00473334 19.3019C-0.0054765 19.365 0.0012913 19.4301 0.0241989 19.489C0.0471065 19.548 0.0851481 19.5982 0.133614 19.6334C0.18208 19.6687 0.238843 19.6875 0.296875 19.6875C2.75574 19.6875 4.60119 18.3853 5.51445 17.5801C6.72756 18.085 8.07463 18.375 9.5 18.375C14.7465 18.375 19 14.5556 19 9.84375C19 5.13188 14.7465 1.3125 9.5 1.3125ZM10.3906 13.7173V14.4375C10.3906 14.8001 10.1249 15.0938 9.79688 15.0938H9.20312C8.87508 15.0938 8.60938 14.8001 8.60938 14.4375V13.7103C8.18559 13.6549 7.78258 13.4974 7.43004 13.2403C7.19922 13.0717 7.17695 12.7025 7.37252 12.4864L8.02268 11.7678C8.16146 11.6144 8.36816 11.5939 8.54629 11.6845C8.6643 11.7444 8.79344 11.7756 8.92703 11.7756H10.1435C10.3164 11.7756 10.4567 11.6205 10.4567 11.4302C10.4567 11.2764 10.3632 11.1398 10.2296 11.0976L8.3715 10.5111C7.54582 10.2506 6.88676 9.49758 6.77914 8.55586C6.62885 7.24049 7.48533 6.1183 8.60938 5.96982V5.25C8.60938 4.88742 8.87508 4.59375 9.20312 4.59375H9.79688C10.1249 4.59375 10.3906 4.88742 10.3906 5.25V5.97721C10.8144 6.03258 11.2174 6.19008 11.57 6.44725C11.8008 6.61582 11.823 6.98496 11.6275 7.20111L10.9773 7.91971C10.8385 8.07311 10.6318 8.09361 10.4537 8.00297C10.3342 7.94259 10.2043 7.91153 10.073 7.91191H8.85652C8.68359 7.91191 8.54332 8.06695 8.54332 8.25727C8.54332 8.41107 8.63684 8.54766 8.77043 8.5899L10.6285 9.17643C11.4542 9.43729 12.1132 10.1899 12.2209 11.1316C12.3712 12.4466 11.5147 13.5688 10.3906 13.7173Z" fill="#636363"/>
</g>
<defs>
<clipPath id="clip0">
<rect width="19" height="21" fill="white"/>
</clipPath>
</defs>
</svg>
