<svg width="22" height="24" viewBox="0 0 22 24" fill="none" xmlns="http://www.w3.org/2000/svg">
<path d="M2 20.125C2 21.1602 2.86384 22 3.92857 22H18.0714C19.1362 22 20 21.1602 20 20.125V9.5H2V20.125ZM14.8571 12.4688C14.8571 12.2109 15.0741 12 15.3393 12H16.9464C17.2116 12 17.4286 12.2109 17.4286 12.4688V14.0312C17.4286 14.2891 17.2116 14.5 16.9464 14.5H15.3393C15.0741 14.5 14.8571 14.2891 14.8571 14.0312V12.4688ZM14.8571 17.4688C14.8571 17.2109 15.0741 17 15.3393 17H16.9464C17.2116 17 17.4286 17.2109 17.4286 17.4688V19.0312C17.4286 19.2891 17.2116 19.5 16.9464 19.5H15.3393C15.0741 19.5 14.8571 19.2891 14.8571 19.0312V17.4688ZM9.71429 12.4688C9.71429 12.2109 9.93125 12 10.1964 12H11.8036C12.0687 12 12.2857 12.2109 12.2857 12.4688V14.0312C12.2857 14.2891 12.0687 14.5 11.8036 14.5H10.1964C9.93125 14.5 9.71429 14.2891 9.71429 14.0312V12.4688ZM9.71429 17.4688C9.71429 17.2109 9.93125 17 10.1964 17H11.8036C12.0687 17 12.2857 17.2109 12.2857 17.4688V19.0312C12.2857 19.2891 12.0687 19.5 11.8036 19.5H10.1964C9.93125 19.5 9.71429 19.2891 9.71429 19.0312V17.4688ZM4.57143 12.4688C4.57143 12.2109 4.78839 12 5.05357 12H6.66071C6.92589 12 7.14286 12.2109 7.14286 12.4688V14.0312C7.14286 14.2891 6.92589 14.5 6.66071 14.5H5.05357C4.78839 14.5 4.57143 14.2891 4.57143 14.0312V12.4688ZM4.57143 17.4688C4.57143 17.2109 4.78839 17 5.05357 17H6.66071C6.92589 17 7.14286 17.2109 7.14286 17.4688V19.0312C7.14286 19.2891 6.92589 19.5 6.66071 19.5H5.05357C4.78839 19.5 4.57143 19.2891 4.57143 19.0312V17.4688ZM18.0714 4.5H16.1429V2.625C16.1429 2.28125 15.8536 2 15.5 2H14.2143C13.8607 2 13.5714 2.28125 13.5714 2.625V4.5H8.42857V2.625C8.42857 2.28125 8.13929 2 7.78571 2H6.5C6.14643 2 5.85714 2.28125 5.85714 2.625V4.5H3.92857C2.86384 4.5 2 5.33984 2 6.375V8.25H20V6.375C20 5.33984 19.1362 4.5 18.0714 4.5Z" fill="#636363"/>
</svg>
